
<svg width="9px" height="8px" viewBox="0 0 9 8" version="1.1" xmlns="http://www.w3.org/2000/svg" xmlns:xlink="http://www.w3.org/1999/xlink">
    <defs>
        <path d="M9.168,8.824 L5.2,12.792 L1.232,8.824 L2.672,8.6 C2.97066816,8.9200016 3.2933316,9.26933144 3.64,9.648 C3.9866684,10.0266686 4.32533168,10.386665 4.656,10.728 C4.64533328,10.3546648 4.63200008,9.94400224 4.616,9.496 C4.59999992,9.04799776 4.58933336,8.60000224 4.584,8.152 C4.57866664,7.70399776 4.57333336,7.26933544 4.568,6.848 C4.56266664,6.42666456 4.56,6.05066832 4.56,5.72 L5.84,5.72 C5.84,6.05066832 5.83733336,6.42666456 5.832,6.848 C5.82666664,7.26933544 5.82133336,7.70399776 5.816,8.152 C5.81066664,8.60000224 5.80266672,9.04799776 5.792,9.496 C5.78133328,9.94400224 5.77066672,10.3546648 5.76,10.728 C6.0800016,10.386665 6.41599824,10.0293352 6.768,9.656 C7.12000176,9.2826648 7.44533184,8.93066832 7.744,8.6 L9.168,8.824 Z" id="path-1"></path>
    </defs>
    <g id="Page-1" stroke="none" stroke-width="1" fill="none" fill-rule="evenodd">
        <g id="↓" transform="translate(-1.000000, -5.000000)" fill="#000000">
            <g>
                <use xlink:href="#path-1"></use>
                <use xlink:href="#path-1"></use>
            </g>
        </g>
    </g>
</svg>
