<svg xmlns="http://www.w3.org/2000/svg" viewBox="0 0 59.998 59.999">
  <g id="logo" transform="translate(-0.002 -0.002)">
    <path id="Union_5" data-name="Union 5" d="M20185,9077a2,2,0,0,1-2-2v-56a2,2,0,0,1,2-2h56a2,2,0,0,1,2,2v56a2.005,2.005,0,0,1-2,2Zm36.34-23.726,1.25,5.045a.082.082,0,0,0,.082.062h3.154a.083.083,0,0,0,.066-.031.091.091,0,0,0,.01-.081l-1.992-5.878a.124.124,0,0,1,.006-.071l3.074-5.472a.085.085,0,0,0,0-.081.082.082,0,0,0-.072-.04h-3.068a.081.081,0,0,0-.076.045l-2.189,4.659a.077.077,0,0,1-.076.051.082.082,0,0,1-.066-.03.069.069,0,0,1-.02-.066l.609-4.562a.089.089,0,0,0-.016-.07.113.113,0,0,0-.066-.025h-2.92a.085.085,0,0,0-.088.076l-1.412,11.481a.092.092,0,0,0,.025.071.07.07,0,0,0,.061.025h2.922a.084.084,0,0,0,.082-.076l.553-5.02a.085.085,0,0,1,.168-.011Zm-7.25-.771a.082.082,0,0,1,.016.07c-.219,1.153-.365,2.149-.432,2.7l-.371,3.013a.078.078,0,0,0,.016.065.089.089,0,0,0,.066.031h2.8a.086.086,0,0,0,.086-.076l1.412-11.487a.078.078,0,0,0-.02-.065.1.1,0,0,0-.066-.025h-2.611a.079.079,0,0,0-.076.045l-1.986,3.709c-.34.641-.727,1.443-1.133,2.322a.083.083,0,0,1-.07.051.087.087,0,0,1-.072-.031.1.1,0,0,1-.016-.076,22.1,22.1,0,0,0,.5-2.789l.391-3.14a.074.074,0,0,0-.02-.065.093.093,0,0,0-.061-.025h-2.8a.083.083,0,0,0-.082.076l-1.412,11.481a.094.094,0,0,0,.02.071.089.089,0,0,0,.066.025h2.611a.084.084,0,0,0,.076-.046l1.881-3.485c.467-.869.838-1.595,1.143-2.321a.085.085,0,0,1,.076-.057A.1.1,0,0,1,20214.088,9052.5Zm-13.238-5.7-1.408,11.481a.078.078,0,0,0,.016.065.089.089,0,0,0,.066.031h2.922a.085.085,0,0,0,.086-.076l.451-3.668a.088.088,0,0,1,.082-.077h.01c.193.016.371.025.533.025a4.277,4.277,0,0,0,3.145-1.168,4.8,4.8,0,0,0,1.275-3.317c0-2.271-1.361-3.373-4.16-3.373h-2.932A.09.09,0,0,0,20200.85,9046.8Zm17.531-12.574-.324,2.627a.062.062,0,0,0,.02.065.065.065,0,0,0,.061.03h1.525a.077.077,0,0,1,.061.031.074.074,0,0,1,.02.065l-1.061,8.673a.1.1,0,0,0,.02.065.082.082,0,0,0,.066.03h2.922a.088.088,0,0,0,.086-.076l1.066-8.712a.084.084,0,0,1,.082-.077h1.631a.084.084,0,0,0,.086-.07l.33-2.627a.1.1,0,0,0-.02-.066.107.107,0,0,0-.066-.03h-6.418A.084.084,0,0,0,20218.381,9034.229Zm-6.99,0-1.412,11.492a.078.078,0,0,0,.025.065.072.072,0,0,0,.061.03h5.594a.087.087,0,0,0,.086-.076l.311-2.626a.1.1,0,0,0-.02-.071.094.094,0,0,0-.062-.025h-2.463a.075.075,0,0,1-.066-.03.093.093,0,0,1-.02-.066l.207-1.61a.083.083,0,0,1,.082-.076h2.23a.08.08,0,0,0,.08-.076l.311-2.464a.089.089,0,0,0-.02-.071.086.086,0,0,0-.066-.025h-2.2a.075.075,0,0,1-.066-.03.088.088,0,0,1-.025-.066l.193-1.524a.08.08,0,0,1,.082-.076h2.5a.082.082,0,0,0,.086-.076l.33-2.57a.093.093,0,0,0-.02-.066.092.092,0,0,0-.066-.03h-5.594A.084.084,0,0,0,20211.391,9034.229ZM20206.6,9037a.1.1,0,0,1,.066.031.087.087,0,0,1,.02.071l-1.061,8.616a.073.073,0,0,0,.025.065.072.072,0,0,0,.061.03h2.922a.088.088,0,0,0,.086-.076l1.412-11.486a.088.088,0,0,0-.086-.1h-7.5a.083.083,0,0,0-.082.071l-1.412,11.492a.1.1,0,0,0,.021.065.072.072,0,0,0,.064.03h2.922a.083.083,0,0,0,.082-.076l1.066-8.661a.089.089,0,0,1,.086-.077Zm-3.271,14.947.3-2.6a.083.083,0,0,1,.082-.076h.152c.68,0,1,.523,1,1.153a1.417,1.417,0,0,1-1.383,1.52Z" transform="translate(-20183 -9017)"/>
  </g>
</svg>
