<svg xmlns="http://www.w3.org/2000/svg" viewBox="0 0 64 64">
  <defs>
    <style>
      .cls-1 {
        fill: #fff;
        opacity: 0.95;
      }
    </style>
  </defs>
  <path id="play" class="cls-1" d="M-1473-6414h-60a2,2,0,0,1-2-2v-60a2,2,0,0,1,2-2h60a2,2,0,0,1,2,2v60A2,2,0,0,1-1473-6414Zm-38.888-46.453a1.424,1.424,0,0,0-1.435,1.409v26.084a1.423,1.423,0,0,0,1.434,1.409,1.451,1.451,0,0,0,.717-.192l22.939-13.042a1.387,1.387,0,0,0,.716-1.218,1.387,1.387,0,0,0-.716-1.218l-22.939-13.042A1.438,1.438,0,0,0-1511.888-6460.453Z" transform="translate(1535 6478.001)"/>
</svg>
